# xmcd CD database file
#
# Track frame offsets:
#	150
#	17705
#	32557
#	63897
#	84255
#	129505
#	232355
#
# Disc length: 3709 seconds
#
# Revision: 1
# Processed by: cddbd v1.5.1PL0 Copyright (c) Steve Scherf et al.
# Submitted via: CDex 1.51
#
DISCID=510e7b07
DTITLE=Keith Jarrett - The Other Side Of Keith Jarrett - Disc 1
DYEAR=2004
DGENRE=Jazz
TTITLE0=Blackberry Winter
TTITLE1=Silence
TTITLE2=Bop-Be
TTITLE3=Tresure Island
TTITLE4=Shades Of Jazz
TTITLE5=Death And The Flower
TTITLE6=Prayer
EXTD=YEAR: 2004
EXTT0=
EXTT1=
EXTT2=
EXTT3=
EXTT4=
EXTT5=
EXTT6=
PLAYORDER=
